<?xml version="1.0" standalone="no"?><!DOCTYPE svg PUBLIC "-//W3C//DTD SVG 1.1//EN" "http://www.w3.org/Graphics/SVG/1.1/DTD/svg11.dtd"><svg t="1573695579536" class="icon" viewBox="0 0 1024 1024" version="1.1" xmlns="http://www.w3.org/2000/svg" p-id="5779" xmlns:xlink="http://www.w3.org/1999/xlink" width="32" height="32"><defs><style type="text/css"></style></defs><path d="M934.4 366.933333c0-0.426667 0-0.853333-0.426667-1.28-2.56-8.533333-5.973333-16.64-9.813333-24.32l-84.48-198.826666c-9.813333-22.613333-29.866667-37.12-52.053333-37.12H221.44c-23.466667 0-44.8 16.213333-53.76 40.96l-76.8 215.04c-1.706667 4.266667-2.56 8.96-3.413333 13.226666-2.56 10.24-3.84 21.333333-3.84 32.426667 0 80.213333 64.853333 145.066667 145.066666 145.066667 64.853333 0 119.466667-42.24 138.24-100.693334 21.333333 58.88 78.08 100.693333 144.213334 100.693334s122.88-41.813333 144.213333-100.693334h0.853333c18.773333 58.453333 73.386667 100.693333 138.24 100.693334 80.213333 0 145.066667-64.853333 145.066667-145.066667 0.426667-13.226667-1.706667-26.88-5.12-40.106667z m-166.4-54.613333H256c-18.773333 0-34.133333-15.36-34.133333-34.133333s15.36-34.133333 34.133333-34.133334h512c18.773333 0 34.133333 15.36 34.133333 34.133334s-15.36 34.133333-34.133333 34.133333zM794.88 621.226667c-52.906667 0-102.4-19.2-140.373333-52.48-39.253333 33.28-89.6 52.48-142.933334 52.48s-103.253333-19.2-142.506666-52.053334c-37.973333 32.853333-87.04 52.053333-139.946667 52.053334-33.28 0-64.426667-7.68-92.586667-21.333334v267.093334c0 28.16 23.04 51.2 51.2 51.2h648.533334c28.16 0 51.2-23.04 51.2-51.2v-267.093334c-28.16 13.653333-59.306667 21.333333-92.586667 21.333334z" fill="#1296db" p-id="5780"></path></svg>